# xmcd CD database file
#
# Track frame offsets:
#	150
#	3950
#	20068
#	40860
#	57803
#	80048
#	98188
#	121063
#	140098
#	155878
#	175218
#	197023
#
# Disc length: 2930 seconds
#
# Revision: 0
# Processed by: cddbd v1.5.1PL0 Copyright (c) Steve Scherf et al.
# Submitted via: CDex 1.51
#
DISCID=9f0b700c
DTITLE=奥野敦士 - 永遠に満月
DYEAR=1992
DGENRE=Japanese Rock
TTITLE0=rehearsal-
TTITLE1=想い出の通学路
TTITLE2=2500年のサーカス
TTITLE3=最後の接吻
TTITLE4=雨のコーヒーショップ
TTITLE5=殺風景
TTITLE6=サヨナラも言えずに
TTITLE7=Crescent Night
TTITLE8=ローソク一本の中で
TTITLE9=ビスタサイズの窓辺
TTITLE10=Endless Full Moon
TTITLE11=奴も昔シンガーだった
EXTD=YEAR: 1992
EXTT0=
EXTT1=
EXTT2=
EXTT3=
EXTT4=
EXTT5=
EXTT6=
EXTT7=
EXTT8=
EXTT9=
EXTT10=
EXTT11=
PLAYORDER=
